<svg xmlns="http://www.w3.org/2000/svg" width="1200" height="884" viewBox="0 0 1200 884" role="img" aria-labelledby="title desc">
  <title id="title">GRID SECURITY ARCHITECTURE</title>
  <desc id="desc">Clean Statecraft figure rendered from manual source material.</desc>
  <rect width="1200" height="884" rx="18" fill="#151620"/>
  <rect x="1" y="1" width="1198" height="882" rx="17" fill="none" stroke="#34384f"/>
  <text x="48" y="42" class="eyebrow">STATECRAFT MANUAL FIGURE</text>
  <text x="48" y="78" class="heading">GRID SECURITY ARCHITECTURE</text>
  <rect x="48" y="112" width="1104" height="58" rx="14" class="card"/>
  <text x="74" y="146" class="body">GRID SECURITY ARCHITECTURE</text>
  <path d="M600 174 v8" class="arrow"/>
  <rect x="48" y="186" width="1104" height="58" rx="14" class="card"/>
  <text x="74" y="220" class="body">[ LEVEL 1: CYBER PHYSICAL AIR-GAPPING ]</text>
  <path d="M600 248 v8" class="arrow"/>
  <rect x="48" y="260" width="1104" height="58" rx="14" class="card"/>
  <text x="74" y="294" class="body">- Complete isolation of SCADA networks.</text>
  <path d="M600 322 v8" class="arrow"/>
  <rect x="48" y="334" width="1104" height="58" rx="14" class="card"/>
  <text x="74" y="368" class="body">- Physical unidirectional data diodes.</text>
  <path d="M600 396 v8" class="arrow"/>
  <rect x="48" y="408" width="1104" height="58" rx="14" class="card"/>
  <text x="74" y="442" class="body">[ LEVEL 2: PHYSICAL DEFENSE-IN-DEPTH ]</text>
  <path d="M600 470 v8" class="arrow"/>
  <rect x="48" y="482" width="1104" height="58" rx="14" class="card"/>
  <text x="74" y="516" class="body">- Triple-layered perimeter fences with sensors.</text>
  <path d="M600 544 v8" class="arrow"/>
  <rect x="48" y="556" width="1104" height="58" rx="14" class="card"/>
  <text x="74" y="590" class="body">- Hardened control rooms resistant to EMP.</text>
  <path d="M600 618 v8" class="arrow"/>
  <rect x="48" y="630" width="1104" height="58" rx="14" class="card"/>
  <text x="74" y="664" class="body">[ LEVEL 3: DECENTRALIZED ISLANDING ]</text>
  <path d="M600 692 v8" class="arrow"/>
  <rect x="48" y="704" width="1104" height="58" rx="14" class="card"/>
  <text x="74" y="738" class="body">- Microgrid switching to isolate local areas.</text>
  <path d="M600 766 v8" class="arrow"/>
  <rect x="48" y="778" width="1104" height="58" rx="14" class="card"/>
  <text x="74" y="812" class="body">- Local generation capacity matching local load.</text>
  <style>
    .eyebrow{font:700 12px ui-sans-serif,system-ui,-apple-system,BlinkMacSystemFont,'Segoe UI',sans-serif;letter-spacing:2.4px;fill:#8b7cff}.heading{font:700 28px ui-sans-serif,system-ui,-apple-system,BlinkMacSystemFont,'Segoe UI',sans-serif;fill:#f6f6fb}.card{fill:#20222e;stroke:#3a3e55}.body{font:18px ui-sans-serif,system-ui,-apple-system,BlinkMacSystemFont,'Segoe UI',sans-serif;fill:#dfe1f1}.arrow{stroke:#8b7cff;stroke-width:3;marker-end:url(#arrow)}
  </style><defs><marker id="arrow" markerWidth="10" markerHeight="10" refX="5" refY="8" orient="auto"><path d="M1,1 L5,9 L9,1" fill="none" stroke="#8b7cff" stroke-width="2"/></marker></defs>
</svg>
